<svg width="61" height="62" viewBox="0 0 61 62" fill="none" xmlns="http://www.w3.org/2000/svg">
<path d="M55.0782 15.2198C54.7494 13.7423 53.769 12.4933 52.4118 11.8229L32.7144 2.09371C31.3187 1.40433 29.6815 1.40432 28.2858 2.09371L8.58841 11.8229C7.23127 12.4933 6.25086 13.7423 5.92207 15.2198L1.0113 37.2881C0.687548 38.743 1.02974 40.2665 1.94458 41.4432L15.6482 59.069C16.5955 60.2873 18.0523 61 19.5956 61H41.4047C42.9479 61 44.4047 60.2873 45.352 59.069L59.0557 41.4432C59.9705 40.2665 60.3127 38.743 59.9889 37.2881L55.0782 15.2198ZM39.1563 45.878C38.2089 47.0936 36.7538 47.8044 35.2126 47.8044H25.7905C24.2477 47.8044 22.7912 47.0921 21.8439 45.8743L15.8678 38.1916C14.9526 37.015 14.61 35.4914 14.9337 34.0363L17.0855 24.3602C17.4143 22.8819 18.3953 21.6322 19.7534 20.962L28.2958 16.7459C29.6908 16.0574 31.3267 16.0574 32.7216 16.7459L41.264 20.962C42.6221 21.6322 43.6031 22.8819 43.9319 24.3602L46.0832 34.0335C46.4071 35.4902 46.0635 37.0155 45.1461 38.1925L39.1563 45.878Z" fill="#361281" stroke="#D5FF2F" stroke-width="1.5" stroke-miterlimit="10"/>
</svg>
