<svg width="69" height="194" viewBox="0 0 69 194" fill="none" xmlns="http://www.w3.org/2000/svg">
<path d="M27.7704 10.0348C27.7704 11.624 27.2988 13.1774 26.4153 14.4987C25.5318 15.8201 24.2761 16.8499 22.8069 17.458C21.3376 18.0662 19.721 18.2253 18.1612 17.9153C16.6015 17.6052 15.1688 16.84 14.0444 15.7163C12.9199 14.5926 12.1541 13.1609 11.8438 11.6023C11.5336 10.0437 11.6928 8.4282 12.3014 6.96003C12.9099 5.49186 13.9405 4.23699 15.2628 3.35411C16.585 2.47123 18.1396 2 19.7299 2C21.8624 2 23.9075 2.84652 25.4154 4.35334C26.9233 5.86017 27.7704 7.90386 27.7704 10.0348Z" fill="#361280"/>
<path d="M19.7299 18.0697C24.1705 18.0697 27.7704 14.4723 27.7704 10.0348C27.7704 5.59731 24.1705 2 19.7299 2C15.2892 2 11.6893 5.59731 11.6893 10.0348C11.6893 14.4723 15.2892 18.0697 19.7299 18.0697Z" stroke="#FF2473" stroke-width="3" stroke-miterlimit="10"/>
<path d="M27.7704 53.5172C27.7704 55.1064 27.2988 56.6598 26.4153 57.9812C25.5318 59.3025 24.2761 60.3323 22.8069 60.9405C21.3376 61.5486 19.721 61.7077 18.1612 61.3977C16.6015 61.0877 15.1688 60.3224 14.0444 59.1987C12.9199 58.075 12.1541 56.6434 11.8438 55.0848C11.5336 53.5262 11.6928 51.9106 12.3014 50.4425C12.9099 48.9743 13.9405 47.7194 15.2628 46.8365C16.585 45.9537 18.1396 45.4824 19.7299 45.4824C21.8624 45.4824 23.9075 46.3289 25.4154 47.8358C26.9233 49.3426 27.7704 51.3863 27.7704 53.5172Z" fill="#361280"/>
<path d="M19.7299 61.5521C24.1705 61.5521 27.7704 57.9548 27.7704 53.5172C27.7704 49.0797 24.1705 45.4824 19.7299 45.4824C15.2892 45.4824 11.6893 49.0797 11.6893 53.5172C11.6893 57.9548 15.2892 61.5521 19.7299 61.5521Z" stroke="#FF2473" stroke-width="3" stroke-miterlimit="10"/>
<path d="M27.7704 97.0002C27.7704 98.5893 27.2988 100.143 26.4153 101.464C25.5318 102.785 24.2761 103.815 22.8069 104.423C21.3376 105.032 19.721 105.191 18.1612 104.881C16.6015 104.571 15.1688 103.805 14.0444 102.682C12.9199 101.558 12.1541 100.126 11.8438 98.5677C11.5336 97.0091 11.6928 95.3935 12.3014 93.9254C12.9099 92.4572 13.9405 91.2023 15.2628 90.3194C16.585 89.4366 18.1396 88.9653 19.7299 88.9653C21.8624 88.9653 23.9075 89.8119 25.4154 91.3187C26.9233 92.8255 27.7704 94.8692 27.7704 97.0002Z" fill="#361280"/>
<path d="M19.7299 105.035C24.1705 105.035 27.7704 101.438 27.7704 97.0002C27.7704 92.5626 24.1705 88.9653 19.7299 88.9653C15.2892 88.9653 11.6893 92.5626 11.6893 97.0002C11.6893 101.438 15.2892 105.035 19.7299 105.035Z" stroke="#FF2473" stroke-width="3" stroke-miterlimit="10"/>
<path d="M27.7704 140.483C27.7704 142.072 27.2988 143.625 26.4153 144.946C25.5318 146.268 24.2761 147.298 22.8069 147.906C21.3376 148.514 19.721 148.673 18.1612 148.363C16.6015 148.053 15.1688 147.288 14.0444 146.164C12.9199 145.04 12.1541 143.609 11.8438 142.05C11.5336 140.491 11.6928 138.876 12.3014 137.408C12.9099 135.94 13.9405 134.685 15.2628 133.802C16.585 132.919 18.1396 132.448 19.7299 132.448C21.8624 132.448 23.9075 133.294 25.4154 134.801C26.9233 136.308 27.7704 138.352 27.7704 140.483Z" fill="#361280"/>
<path d="M19.7299 148.517C24.1705 148.517 27.7704 144.92 27.7704 140.483C27.7704 136.045 24.1705 132.448 19.7299 132.448C15.2892 132.448 11.6893 136.045 11.6893 140.483C11.6893 144.92 15.2892 148.517 19.7299 148.517Z" stroke="#FF2473" stroke-width="3" stroke-miterlimit="10"/>
<path d="M27.7704 183.965C27.7704 185.554 27.2988 187.108 26.4153 188.429C25.5318 189.75 24.2761 190.78 22.8069 191.388C21.3376 191.996 19.721 192.155 18.1612 191.845C16.6015 191.535 15.1688 190.77 14.0444 189.646C12.9199 188.523 12.1541 187.091 11.8438 185.533C11.5336 183.974 11.6928 182.358 12.3014 180.89C12.9099 179.422 13.9405 178.167 15.2628 177.284C16.585 176.401 18.1396 175.93 19.7299 175.93C21.8624 175.93 23.9075 176.777 25.4154 178.284C26.9233 179.79 27.7704 181.834 27.7704 183.965Z" fill="#361280"/>
<path d="M19.7299 192C24.1705 192 27.7704 188.403 27.7704 183.965C27.7704 179.527 24.1705 175.93 19.7299 175.93C15.2892 175.93 11.6893 179.527 11.6893 183.965C11.6893 188.403 15.2892 192 19.7299 192Z" stroke="#FF2473" stroke-width="3" stroke-miterlimit="10"/>
<path d="M67.5002 10.0348C67.5002 11.624 67.0286 13.1774 66.1451 14.4987C65.2616 15.8201 64.0058 16.8499 62.5366 17.458C61.0674 18.0662 59.4507 18.2253 57.891 17.9153C56.3313 17.6052 54.8986 16.84 53.7741 15.7163C52.6496 14.5926 51.8838 13.1609 51.5736 11.6023C51.2633 10.0437 51.4225 8.4282 52.0311 6.96003C52.6397 5.49186 53.6703 4.23699 54.9925 3.35411C56.3148 2.47123 57.8693 2 59.4596 2C61.5921 2 63.6372 2.84652 65.1451 4.35334C66.653 5.86017 67.5002 7.90386 67.5002 10.0348Z" fill="#361280"/>
<path d="M59.4596 18.0697C63.9003 18.0697 67.5001 14.4723 67.5001 10.0348C67.5001 5.59731 63.9003 2 59.4596 2C55.0189 2 51.4191 5.59731 51.4191 10.0348C51.4191 14.4723 55.0189 18.0697 59.4596 18.0697Z" stroke="#FF2473" stroke-width="3" stroke-miterlimit="10"/>
<path d="M67.5002 53.5172C67.5002 55.1064 67.0286 56.6598 66.1451 57.9812C65.2616 59.3025 64.0058 60.3323 62.5366 60.9405C61.0674 61.5486 59.4507 61.7077 57.891 61.3977C56.3313 61.0877 54.8986 60.3224 53.7741 59.1987C52.6496 58.075 51.8838 56.6434 51.5736 55.0848C51.2633 53.5262 51.4225 51.9106 52.0311 50.4425C52.6397 48.9743 53.6703 47.7194 54.9925 46.8365C56.3148 45.9537 57.8693 45.4824 59.4596 45.4824C61.5921 45.4824 63.6372 46.3289 65.1451 47.8358C66.653 49.3426 67.5002 51.3863 67.5002 53.5172Z" fill="#361280"/>
<path d="M59.4596 61.5521C63.9003 61.5521 67.5001 57.9548 67.5001 53.5172C67.5001 49.0797 63.9003 45.4824 59.4596 45.4824C55.0189 45.4824 51.4191 49.0797 51.4191 53.5172C51.4191 57.9548 55.0189 61.5521 59.4596 61.5521Z" stroke="#FF2473" stroke-width="3" stroke-miterlimit="10"/>
<path d="M67.5002 97.0002C67.5002 98.5893 67.0286 100.143 66.1451 101.464C65.2616 102.785 64.0058 103.815 62.5366 104.423C61.0674 105.032 59.4507 105.191 57.891 104.881C56.3313 104.571 54.8986 103.805 53.7741 102.682C52.6496 101.558 51.8838 100.126 51.5736 98.5677C51.2633 97.0091 51.4225 95.3935 52.0311 93.9254C52.6397 92.4572 53.6703 91.2023 54.9925 90.3194C56.3148 89.4366 57.8693 88.9653 59.4596 88.9653C61.5921 88.9653 63.6372 89.8119 65.1451 91.3187C66.653 92.8255 67.5002 94.8692 67.5002 97.0002Z" fill="#361280"/>
<path d="M59.4596 105.035C63.9003 105.035 67.5001 101.438 67.5001 97.0002C67.5001 92.5626 63.9003 88.9653 59.4596 88.9653C55.0189 88.9653 51.4191 92.5626 51.4191 97.0002C51.4191 101.438 55.0189 105.035 59.4596 105.035Z" stroke="#FF2473" stroke-width="3" stroke-miterlimit="10"/>
<path d="M67.5002 140.483C67.5002 142.072 67.0286 143.625 66.1451 144.946C65.2616 146.268 64.0058 147.298 62.5366 147.906C61.0674 148.514 59.4507 148.673 57.891 148.363C56.3313 148.053 54.8986 147.288 53.7741 146.164C52.6496 145.04 51.8838 143.609 51.5736 142.05C51.2633 140.491 51.4225 138.876 52.0311 137.408C52.6397 135.94 53.6703 134.685 54.9925 133.802C56.3148 132.919 57.8693 132.448 59.4596 132.448C61.5921 132.448 63.6372 133.294 65.1451 134.801C66.653 136.308 67.5002 138.352 67.5002 140.483Z" fill="#361280"/>
<path d="M59.4596 148.517C63.9003 148.517 67.5001 144.92 67.5001 140.483C67.5001 136.045 63.9003 132.448 59.4596 132.448C55.0189 132.448 51.4191 136.045 51.4191 140.483C51.4191 144.92 55.0189 148.517 59.4596 148.517Z" stroke="#FF2473" stroke-width="3" stroke-miterlimit="10"/>
<path d="M67.5002 183.965C67.5002 185.554 67.0286 187.108 66.1451 188.429C65.2616 189.75 64.0058 190.78 62.5366 191.388C61.0674 191.996 59.4507 192.155 57.891 191.845C56.3313 191.535 54.8986 190.77 53.7741 189.646C52.6496 188.523 51.8838 187.091 51.5736 185.533C51.2633 183.974 51.4225 182.358 52.0311 180.89C52.6397 179.422 53.6703 178.167 54.9925 177.284C56.3148 176.401 57.8693 175.93 59.4596 175.93C61.5921 175.93 63.6372 176.777 65.1451 178.284C66.653 179.79 67.5002 181.834 67.5002 183.965Z" fill="#361280"/>
<path d="M59.4596 192C63.9003 192 67.5001 188.403 67.5001 183.965C67.5001 179.527 63.9003 175.93 59.4596 175.93C55.0189 175.93 51.4191 179.527 51.4191 183.965C51.4191 188.403 55.0189 192 59.4596 192Z" stroke="#FF2473" stroke-width="3" stroke-miterlimit="10"/>
</svg>
