<svg width="69" height="193" viewBox="0 0 69 193" fill="none" xmlns="http://www.w3.org/2000/svg">
<path d="M19.3246 4.87131L11.4716 2L3.61868 4.87131L-0.56958 12.1495L0.885824 20.4215L7.28862 25.8223H15.6651L22.0732 20.4215L23.5234 12.1495L19.3246 4.87131ZM16.9949 17.4924L13.6496 20.3111H9.28331L5.94317 17.4924L5.18407 13.1749L7.36716 9.38333L11.4665 7.87932L15.5657 9.38333L17.7489 13.1749L16.9949 17.4924Z" stroke="#FF6F1F" stroke-width="2" stroke-miterlimit="10"/>
<path d="M63.3015 4.87131L55.4485 2L47.5955 4.87131L43.4072 12.1495L44.8627 20.4215L51.2655 25.8223H59.642L66.05 20.4215L67.5002 12.1495L63.3015 4.87131ZM60.9718 17.4924L57.6264 20.3111H53.2601L49.92 17.4924L49.1609 13.1749L51.344 9.38333L55.4433 7.87932L59.5425 9.38333L61.7257 13.1749L60.9718 17.4924Z" stroke="#FF6F1F" stroke-width="2" stroke-miterlimit="10"/>
<path d="M19.3246 46.4157L11.4716 43.5444L3.61868 46.4157L-0.56958 53.6939L0.885824 61.966L7.28862 67.3667H15.6651L22.0732 61.966L23.5234 53.6939L19.3246 46.4157ZM16.9949 59.0368L13.6496 61.8555H9.28331L5.94317 59.0368L5.18407 54.7194L7.36716 50.9278L11.4665 49.4238L15.5657 50.9278L17.7489 54.7194L16.9949 59.0368Z" stroke="#FF6F1F" stroke-width="2" stroke-miterlimit="10"/>
<path d="M63.3015 46.4157L55.4485 43.5444L47.5955 46.4157L43.4072 53.6939L44.8627 61.966L51.2655 67.3667H59.642L66.05 61.966L67.5002 53.6939L63.3015 46.4157ZM60.9718 59.0368L57.6264 61.8555H53.2601L49.92 59.0368L49.1609 54.7194L51.344 50.9278L55.4433 49.4238L59.5425 50.9278L61.7257 54.7194L60.9718 59.0368Z" stroke="#FF6F1F" stroke-width="2" stroke-miterlimit="10"/>
<path d="M19.3246 87.9602L11.4716 85.0889L3.61868 87.9602L-0.56958 95.2383L0.885824 103.51L7.28862 108.911H15.6651L22.0732 103.51L23.5234 95.2383L19.3246 87.9602ZM16.9949 100.581L13.6496 103.4H9.28331L5.94317 100.581L5.18407 96.2638L7.36716 92.4722L11.4665 90.9682L15.5657 92.4722L17.7489 96.2638L16.9949 100.581Z" stroke="#FF6F1F" stroke-width="2" stroke-miterlimit="10"/>
<path d="M63.3015 87.9602L55.4485 85.0889L47.5955 87.9602L43.4072 95.2383L44.8627 103.51L51.2655 108.911H59.642L66.05 103.51L67.5002 95.2383L63.3015 87.9602ZM60.9718 100.581L57.6264 103.4H53.2601L49.92 100.581L49.1609 96.2638L51.344 92.4722L55.4433 90.9682L59.5425 92.4722L61.7257 96.2638L60.9718 100.581Z" stroke="#FF6F1F" stroke-width="2" stroke-miterlimit="10"/>
<path d="M19.3246 129.505L11.4716 126.633L3.61868 129.505L-0.56958 136.783L0.885824 145.055L7.28862 150.456H15.6651L22.0732 145.055L23.5234 136.783L19.3246 129.505ZM16.9949 142.126L13.6496 144.944H9.28331L5.94317 142.126L5.18407 137.808L7.36716 134.017L11.4665 132.513L15.5657 134.017L17.7489 137.808L16.9949 142.126Z" stroke="#FF6F1F" stroke-width="2" stroke-miterlimit="10"/>
<path d="M63.3015 129.505L55.4485 126.633L47.5955 129.505L43.4072 136.783L44.8627 145.055L51.2655 150.456H59.642L66.05 145.055L67.5002 136.783L63.3015 129.505ZM60.9718 142.126L57.6264 144.944H53.2601L49.92 142.126L49.1609 137.808L51.344 134.017L55.4433 132.513L59.5425 134.017L61.7257 137.808L60.9718 142.126Z" stroke="#FF6F1F" stroke-width="2" stroke-miterlimit="10"/>
<path d="M19.3246 171.049L11.4716 168.178L3.61868 171.049L-0.56958 178.327L0.885824 186.599L7.28862 192H15.6651L22.0732 186.599L23.5234 178.327L19.3246 171.049ZM16.9949 183.67L13.6496 186.489H9.28331L5.94317 183.67L5.18407 179.353L7.36716 175.561L11.4665 174.057L15.5657 175.561L17.7489 179.353L16.9949 183.67Z" stroke="#FF6F1F" stroke-width="2" stroke-miterlimit="10"/>
<path d="M63.3015 171.049L55.4485 168.178L47.5955 171.049L43.4072 178.327L44.8627 186.599L51.2655 192H59.642L66.05 186.599L67.5002 178.327L63.3015 171.049ZM60.9718 183.67L57.6264 186.489H53.2601L49.92 183.67L49.1609 179.353L51.344 175.561L55.4433 174.057L59.5425 175.561L61.7257 179.353L60.9718 183.67Z" stroke="#FF6F1F" stroke-width="2" stroke-miterlimit="10"/>
</svg>
