<svg width="63" height="62" viewBox="0 0 63 62" fill="none" xmlns="http://www.w3.org/2000/svg">
<path d="M52.327 9.81503C51.7388 8.797 50.8108 8.01878 49.7058 7.61708L33.2129 1.6211C32.1093 1.21988 30.8996 1.2199 29.796 1.62116L13.3042 7.61739C12.1999 8.01891 11.2723 8.79652 10.6841 9.81377L1.91208 24.9859C1.32298 26.0048 1.11219 27.1988 1.31682 28.3579L4.36199 45.6056C4.5665 46.764 5.17287 47.8131 6.07447 48.5686L19.5164 59.8324C20.4165 60.5866 21.5534 61 22.7278 61H40.2803C41.4552 61 42.5925 60.5863 43.4927 59.8315L56.9263 48.5686C57.8274 47.8131 58.4334 46.7642 58.6378 45.6062L61.6834 28.3524C61.8879 27.194 61.6774 26.0006 61.089 24.9821L52.327 9.81503ZM45.8198 38.2116C45.615 39.3713 45.0075 40.4215 44.1042 41.1772L38.425 45.9283C37.5253 46.681 36.3897 47.0934 35.2167 47.0934H27.7922C26.6192 47.0934 25.4836 46.681 24.5839 45.9283L18.9047 41.1772C18.0014 40.4215 17.3939 39.3713 17.1891 38.2116L15.9028 30.927C15.6981 29.7677 15.909 28.5734 16.4984 27.5544L20.2056 21.1444C20.7937 20.1275 21.7211 19.3502 22.825 18.9487L29.7958 16.4138C30.8996 16.0124 32.1094 16.0123 33.2131 16.4136L40.1854 18.9486C41.2898 19.3501 42.2174 20.1278 42.8056 21.1452L46.511 27.5546C47.1 28.5735 47.3108 29.7675 47.1061 30.9265L45.8198 38.2116Z" fill="#361281" stroke="#D5FF2F" stroke-width="2" stroke-miterlimit="10"/>
</svg>
