<svg width="103" height="100" viewBox="0 0 103 100" fill="none" xmlns="http://www.w3.org/2000/svg">
<path d="M51.498 4.43018L21.1367 15.4146L4.98221 43.2275L10.5908 74.853L35.3434 95.4941H67.6525L92.4052 74.853L98.0171 43.2275L81.8626 15.4146L51.498 4.43018Z" fill="#361281" stroke="#D5FF2F" stroke-width="2" stroke-miterlimit="10"/>
<path d="M51.498 27.8845L36.3057 33.3833L28.2202 47.2996L31.0278 63.1255L43.4157 73.4559H59.5835L71.968 63.1255L74.7757 47.2996L66.6935 33.3833L51.498 27.8845Z" fill="#361281" stroke="#D5FF2F" stroke-width="2" stroke-miterlimit="10"/>
<path d="M51.4978 4.50562V28.2856" stroke="#D5FF2F" stroke-width="2" stroke-miterlimit="10"/>
<path d="M20.9812 15.5361L51.4979 28.2856" stroke="#D5FF2F" stroke-width="2" stroke-miterlimit="10"/>
<path d="M82.0144 15.5361L51.4978 28.2856" stroke="#D5FF2F" stroke-width="2" stroke-miterlimit="10"/>
<path d="M36.2396 33.4557L51.4979 4.50562" stroke="#D5FF2F" stroke-width="2" stroke-miterlimit="10"/>
<path d="M66.7561 33.4557L51.4978 4.50562" stroke="#D5FF2F" stroke-width="2" stroke-miterlimit="10"/>
<path d="M82.0145 15.5361L66.7562 33.4557" stroke="#D5FF2F" stroke-width="2" stroke-miterlimit="10"/>
<path d="M74.7326 47.2438L82.0145 15.5361" stroke="#D5FF2F" stroke-width="2" stroke-miterlimit="10"/>
<path d="M36.2395 33.4559L20.9812 15.533" stroke="#D5FF2F" stroke-width="2" stroke-miterlimit="10"/>
<path d="M28.2664 47.2438L20.9812 15.5361" stroke="#D5FF2F" stroke-width="2" stroke-miterlimit="10"/>
<path d="M5.03177 43.106L28.2665 47.244" stroke="#D5FF2F" stroke-width="2" stroke-miterlimit="10"/>
<path d="M31.0378 63.0959L10.5809 74.8167" stroke="#D5FF2F" stroke-width="2" stroke-miterlimit="10"/>
<path d="M28.2666 47.2439L10.5809 74.8168" stroke="#D5FF2F" stroke-width="2" stroke-miterlimit="10"/>
<path d="M5.03177 43.106L31.0378 63.0962" stroke="#D5FF2F" stroke-width="2" stroke-miterlimit="10"/>
<path d="M43.5217 73.4363L35.2013 95.494" stroke="#D5FF2F" stroke-width="2" stroke-miterlimit="10"/>
<path d="M67.7979 95.494L43.5215 73.4363" stroke="#D5FF2F" stroke-width="2" stroke-miterlimit="10"/>
<path d="M31.0377 63.0959L35.2012 95.4939" stroke="#D5FF2F" stroke-width="2" stroke-miterlimit="10"/>
<path d="M10.5809 74.8167L43.5216 73.4363" stroke="#D5FF2F" stroke-width="2" stroke-miterlimit="10"/>
<path d="M59.4743 73.4363L92.4183 75.1586" stroke="#D5FF2F" stroke-width="2" stroke-miterlimit="10"/>
<path d="M71.9581 63.0959L67.7979 95.4939" stroke="#D5FF2F" stroke-width="2" stroke-miterlimit="10"/>
<path d="M59.4743 73.4363L67.7979 95.494" stroke="#D5FF2F" stroke-width="2" stroke-miterlimit="10"/>
<path d="M35.2013 95.494L59.4745 73.4363" stroke="#D5FF2F" stroke-width="2" stroke-miterlimit="10"/>
<path d="M74.7326 47.244L97.9674 43.106" stroke="#D5FF2F" stroke-width="2" stroke-miterlimit="10"/>
<path d="M92.4183 74.8168L74.7326 47.2439" stroke="#D5FF2F" stroke-width="2" stroke-miterlimit="10"/>
<path d="M71.9581 63.0959L92.4183 74.8167" stroke="#D5FF2F" stroke-width="2" stroke-miterlimit="10"/>
<path d="M97.9673 43.106L71.2635 63.4413" stroke="#D5FF2F" stroke-width="2" stroke-miterlimit="10"/>
<path d="M66.7562 33.4558L97.9673 43.1058" stroke="#D5FF2F" stroke-width="2" stroke-miterlimit="10"/>
<path d="M17.5155 15.878C17.5155 15.196 17.7191 14.5292 18.1004 13.9622C18.4817 13.3951 19.0237 12.9532 19.6578 12.6923C20.2918 12.4315 20.9895 12.3634 21.6625 12.4967C22.3355 12.63 22.9536 12.9587 23.4386 13.4412C23.9237 13.9237 24.2538 14.5384 24.3873 15.2074C24.5208 15.8764 24.4516 16.5698 24.1885 17.1997C23.9255 17.8297 23.4803 18.3679 22.9094 18.7464C22.3385 19.1249 21.6675 19.3265 20.9812 19.3259C20.5258 19.3259 20.0749 19.2367 19.6542 19.0634C19.2335 18.89 18.8513 18.636 18.5294 18.3158C18.2076 17.9956 17.9523 17.6155 17.7784 17.1972C17.6044 16.7789 17.5151 16.3306 17.5155 15.878Z" fill="#361281"/>
<path d="M22.3075 19.0626C24.0775 18.3339 24.9181 16.317 24.1849 14.5578C23.4517 12.7985 21.4225 11.9631 19.6524 12.6918C17.8824 13.4205 17.0418 15.4374 17.775 17.1966C18.5082 18.9559 20.5374 19.7913 22.3075 19.0626Z" fill="#361281" stroke="#D5FF2F" stroke-width="2" stroke-miterlimit="10"/>
<path d="M1.56271 43.796C1.56271 43.1136 1.76643 42.4466 2.14805 41.8794C2.52967 41.3122 3.07203 40.8703 3.70648 40.6097C4.34094 40.349 5.03895 40.2813 5.71214 40.4151C6.38533 40.549 7.00343 40.8783 7.48818 41.3615C7.97293 41.8447 8.30253 42.4599 8.43526 43.1294C8.56799 43.7989 8.4979 44.4924 8.23382 45.1223C7.96974 45.7521 7.52355 46.2899 6.95177 46.6676C6.37999 47.0452 5.70832 47.2458 5.0218 47.2438C4.10176 47.2438 3.21941 46.8806 2.56884 46.234C1.91828 45.5874 1.5528 44.7104 1.5528 43.796" fill="#361281"/>
<path d="M6.36014 46.981C8.13019 46.2523 8.97073 44.2355 8.23756 42.4762C7.50438 40.717 5.47513 39.8815 3.70508 40.6102C1.93504 41.339 1.09448 43.3558 1.82765 45.1151C2.56083 46.8743 4.5901 47.7097 6.36014 46.981Z" fill="#361281" stroke="#D5FF2F" stroke-width="2" stroke-miterlimit="10"/>
<path d="M7.45902 75.1588C7.45902 74.4767 7.66255 73.81 8.04387 73.2429C8.4252 72.6759 8.96721 72.2339 9.60128 71.9731C10.2353 71.7122 10.933 71.6441 11.606 71.7774C12.279 71.9107 12.8972 72.2394 13.3822 72.722C13.8672 73.2045 14.1973 73.8191 14.3308 74.4882C14.4643 75.1572 14.3951 75.8505 14.132 76.4805C13.8689 77.1105 13.4238 77.6487 12.8529 78.0272C12.282 78.4056 11.611 78.6073 10.9247 78.6066C10.4693 78.6066 10.0184 78.5174 9.59769 78.3441C9.17699 78.1708 8.79481 77.9168 8.47295 77.5966C8.15108 77.2764 7.89587 76.8963 7.72189 76.478C7.54792 76.0597 7.45858 75.6114 7.45902 75.1588Z" fill="#361281"/>
<path d="M12.2529 78.346C14.023 77.6173 14.8635 75.6005 14.1303 73.8412C13.3972 72.082 11.3679 71.2465 9.59786 71.9752C7.82781 72.7039 6.98727 74.7208 7.72044 76.4801C8.45362 78.2393 10.4829 79.0747 12.2529 78.346Z" fill="#361281" stroke="#D5FF2F" stroke-width="2" stroke-miterlimit="10"/>
<path d="M31.7322 95.5104C31.7322 94.8284 31.9357 94.1618 32.3169 93.5948C32.698 93.0278 33.2398 92.5859 33.8737 92.325C34.5076 92.064 35.2051 91.9957 35.878 92.1287C36.5509 92.2618 37.169 92.5902 37.6542 93.0724C38.1393 93.5545 38.4697 94.1689 38.6036 94.8377C38.7375 95.5065 38.6688 96.1998 38.4062 96.8298C38.1436 97.4598 37.699 97.9983 37.1285 98.3771C36.558 98.756 35.8873 98.9582 35.2012 98.9582C34.2812 98.9582 33.3988 98.5949 32.7483 97.9483C32.0977 97.3017 31.7322 96.4248 31.7322 95.5104Z" fill="#361281"/>
<path d="M36.529 98.6805C38.299 97.9518 39.1395 95.9349 38.4064 94.1757C37.6732 92.4164 35.6439 91.581 33.8739 92.3097C32.1038 93.0384 31.2633 95.0553 31.9965 96.8146C32.7297 98.5738 34.7589 99.4092 36.529 98.6805Z" fill="#361281" stroke="#D5FF2F" stroke-width="2" stroke-miterlimit="10"/>
<path d="M64.3289 95.5104C64.3289 94.8284 64.5324 94.1618 64.9136 93.5948C65.2948 93.0278 65.8366 92.5859 66.4704 92.325C67.1043 92.064 67.8018 91.9957 68.4747 92.1287C69.1476 92.2618 69.7658 92.5902 70.2509 93.0724C70.7361 93.5545 71.0665 94.1689 71.2003 94.8377C71.3342 95.5065 71.2655 96.1998 71.0029 96.8298C70.7403 97.4598 70.2957 97.9983 69.7253 98.3771C69.1548 98.756 68.4841 98.9582 67.798 98.9582C66.8779 98.9582 65.9956 98.5949 65.345 97.9483C64.6945 97.3017 64.3289 96.4248 64.3289 95.5104Z" fill="#361281"/>
<path d="M69.1246 98.6803C70.8946 97.9516 71.7352 95.9347 71.002 94.1754C70.2688 92.4162 68.2395 91.5808 66.4695 92.3095C64.6995 93.0382 63.8589 95.0551 64.5921 96.8143C65.3253 98.5736 67.3545 99.409 69.1246 98.6803Z" fill="#361281" stroke="#D5FF2F" stroke-width="2" stroke-miterlimit="10"/>
<path d="M88.9495 75.1588C88.9495 74.4769 89.1529 73.8103 89.5341 73.2433C89.9153 72.6763 90.457 72.2343 91.0909 71.9734C91.7248 71.7124 92.4223 71.6442 93.0952 71.7772C93.7682 71.9102 94.3863 72.2386 94.8714 72.7208C95.3566 73.203 95.687 73.8173 95.8208 74.4861C95.9547 75.155 95.8859 75.8482 95.6234 76.4782C95.3608 77.1082 94.9162 77.6467 94.3457 78.0256C93.7753 78.4044 93.1046 78.6066 92.4185 78.6066C91.4984 78.6066 90.6161 78.2434 89.9655 77.5968C89.3149 76.9502 88.9495 76.0732 88.9495 75.1588Z" fill="#361281"/>
<path d="M93.7439 78.3443C95.5139 77.6156 96.3544 75.5987 95.6213 73.8395C94.8881 72.0803 92.8588 71.2448 91.0888 71.9735C89.3187 72.7022 88.4782 74.7191 89.2114 76.4784C89.9446 78.2376 91.9738 79.073 93.7439 78.3443Z" fill="#361281" stroke="#D5FF2F" stroke-width="2" stroke-miterlimit="10"/>
<path d="M94.4984 43.796C94.4984 43.1141 94.7019 42.4475 95.0831 41.8805C95.4642 41.3135 96.006 40.8716 96.6399 40.6106C97.2738 40.3496 97.9713 40.2814 98.6442 40.4144C99.3171 40.5474 99.9352 40.8758 100.42 41.358C100.906 41.8402 101.236 42.4545 101.37 43.1234C101.504 43.7922 101.435 44.4854 101.172 45.1154C100.91 45.7454 100.465 46.2839 99.8947 46.6628C99.3242 47.0416 98.6536 47.2438 97.9675 47.2438C97.5118 47.2443 97.0605 47.1554 96.6394 46.9823C96.2183 46.8092 95.8357 46.5552 95.5135 46.235C95.1913 45.9147 94.9358 45.5344 94.7616 45.1159C94.5874 44.6974 94.498 44.2489 94.4984 43.796Z" fill="#361281"/>
<path d="M99.2951 46.9825C101.065 46.2538 101.906 44.2369 101.173 42.4777C100.439 40.7184 98.4101 39.883 96.6401 40.6117C94.87 41.3404 94.0294 43.3573 94.7626 45.1165C95.4958 46.8758 97.5251 47.7112 99.2951 46.9825Z" fill="#361281" stroke="#D5FF2F" stroke-width="2" stroke-miterlimit="10"/>
<path d="M78.2017 15.878C78.2017 15.196 78.4052 14.5292 78.7865 13.9622C79.1679 13.3951 79.7098 12.9532 80.3439 12.6923C80.978 12.4315 81.6757 12.3634 82.3487 12.4967C83.0217 12.63 83.6398 12.9587 84.1248 13.4412C84.6098 13.9237 84.94 14.5384 85.0735 15.2074C85.2069 15.8764 85.1378 16.5698 84.8747 17.1997C84.6116 17.8297 84.1665 18.3679 83.5956 18.7464C83.0247 19.1249 82.3536 19.3265 81.6674 19.3259C81.212 19.3259 80.7611 19.2367 80.3404 19.0634C79.9197 18.89 79.5374 18.636 79.2156 18.3158C78.8937 17.9956 78.6385 17.6155 78.4645 17.1972C78.2906 16.7789 78.2013 16.3306 78.2017 15.878Z" fill="#361281"/>
<path d="M82.994 19.0638C84.7641 18.3351 85.6046 16.3182 84.8714 14.559C84.1382 12.7997 82.109 11.9643 80.3389 12.693C78.5689 13.4217 77.7284 15.4386 78.4615 17.1978C79.1947 18.9571 81.224 19.7925 82.994 19.0638Z" fill="#361281" stroke="#D5FF2F" stroke-width="2" stroke-miterlimit="10"/>
<path d="M48.0323 4.5057C48.0323 3.82365 48.2358 3.15691 48.6171 2.58984C48.9984 2.02278 49.5404 1.58086 50.1745 1.32C50.8085 1.05914 51.5062 0.991051 52.1792 1.12435C52.8523 1.25766 53.4704 1.58636 53.9554 2.06888C54.4404 2.55139 54.7705 3.16605 54.904 3.83508C55.0375 4.50411 54.9683 5.19746 54.7052 5.82742C54.4422 6.45737 53.997 6.99563 53.4261 7.37409C52.8552 7.75255 52.1842 7.9542 51.498 7.95355C50.5785 7.95268 49.697 7.58904 49.0471 6.94254C48.3973 6.29604 48.0323 5.41956 48.0323 4.5057Z" fill="#361281"/>
<path d="M52.8258 7.69027C54.5958 6.96157 55.4364 4.94469 54.7032 3.18544C53.97 1.4262 51.9408 0.59078 50.1707 1.31948C48.4007 2.04819 47.5601 4.06506 48.2933 5.82431C49.0265 7.58355 51.0558 8.41898 52.8258 7.69027Z" fill="#361281" stroke="#D5FF2F" stroke-width="2" stroke-miterlimit="10"/>
<path d="M32.774 33.8009C32.774 33.1188 32.9775 32.4521 33.3588 31.885C33.7401 31.3179 34.2821 30.876 34.9162 30.6152C35.5503 30.3543 36.2479 30.2862 36.9209 30.4195C37.594 30.5528 38.2121 30.8815 38.6971 31.364C39.1821 31.8466 39.5122 32.4612 39.6457 33.1302C39.7792 33.7993 39.71 34.4926 39.447 35.1226C39.1839 35.7525 38.7388 36.2908 38.1678 36.6693C37.5969 37.0477 36.9259 37.2494 36.2397 37.2487C35.7843 37.2487 35.3333 37.1595 34.9126 36.9862C34.4919 36.8129 34.1097 36.5589 33.7878 36.2387C33.466 35.9185 33.2108 35.5383 33.0368 35.1201C32.8628 34.7018 32.7735 34.2535 32.774 33.8009Z" fill="#361281"/>
<path d="M37.5677 36.9862C39.3378 36.2575 40.1783 34.2406 39.4451 32.4813C38.712 30.7221 36.6827 29.8867 34.9127 30.6154C33.1426 31.3441 32.3021 33.361 33.0353 35.1202C33.7684 36.8795 35.7977 37.7149 37.5677 36.9862Z" fill="#361281" stroke="#D5FF2F" stroke-width="2" stroke-miterlimit="10"/>
<path d="M48.0323 28.2858C48.0349 27.6043 48.2406 26.9388 48.6235 26.3735C49.0064 25.8082 49.5493 25.3683 50.1836 25.1095C50.8179 24.8506 51.5152 24.7844 52.1873 24.9192C52.8595 25.054 53.4763 25.3837 53.96 25.8667C54.4437 26.3498 54.7725 26.9644 54.905 27.6331C55.0374 28.3018 54.9674 28.9945 54.704 29.6237C54.4405 30.2528 53.9954 30.7903 53.4247 31.1682C52.8541 31.5461 52.1836 31.7474 51.498 31.7468C51.0426 31.7468 50.5916 31.6576 50.1709 31.4843C49.7502 31.3109 49.368 31.0569 49.0461 30.7367C48.7243 30.4165 48.4691 30.0364 48.2951 29.6181C48.1211 29.1998 48.0318 28.7515 48.0323 28.2989" fill="#361281"/>
<path d="M52.8248 31.471C54.5949 30.7423 55.4354 28.7255 54.7022 26.9662C53.9691 25.207 51.9398 24.3715 50.1698 25.1002C48.3997 25.8289 47.5592 27.8458 48.2923 29.6051C49.0255 31.3643 51.0548 32.1997 52.8248 31.471Z" fill="#361281" stroke="#D5FF2F" stroke-width="2" stroke-miterlimit="10"/>
<path d="M63.6344 33.8009C63.6344 33.119 63.8379 32.4524 64.2191 31.8854C64.6002 31.3184 65.142 30.8764 65.7759 30.6155C66.4098 30.3545 67.1073 30.2862 67.7802 30.4193C68.4531 30.5523 69.0712 30.8807 69.5564 31.3629C70.0415 31.8451 70.3719 32.4594 70.5058 33.1282C70.6396 33.7971 70.5709 34.4903 70.3084 35.1203C70.0458 35.7503 69.6012 36.2888 69.0307 36.6677C68.4602 37.0465 67.7895 37.2487 67.1034 37.2487C66.1834 37.2487 65.301 36.8855 64.6505 36.2389C63.9999 35.5923 63.6344 34.7153 63.6344 33.8009Z" fill="#361281"/>
<path d="M68.4303 36.9876C70.2003 36.2589 71.0408 34.2421 70.3077 32.4828C69.5745 30.7236 67.5452 29.8881 65.7752 30.6168C64.0052 31.3455 63.1646 33.3624 63.8978 35.1217C64.631 36.8809 66.6602 37.7163 68.4303 36.9876Z" fill="#361281" stroke="#D5FF2F" stroke-width="2" stroke-miterlimit="10"/>
<path d="M71.2635 47.9308C71.2635 47.2488 71.467 46.5822 71.8482 46.0152C72.2293 45.4482 72.7711 45.0063 73.405 44.7454C74.0389 44.4844 74.7364 44.4161 75.4093 44.5492C76.0823 44.6822 76.7003 45.0106 77.1855 45.4928C77.6706 45.975 78.001 46.5893 78.1349 47.2581C78.2687 47.9269 78.2 48.6202 77.9375 49.2502C77.6749 49.8802 77.2303 50.4187 76.6598 50.7975C76.0893 51.1764 75.4187 51.3786 74.7326 51.3786C73.8125 51.3786 72.9301 51.0154 72.2796 50.3688C71.629 49.7222 71.2635 48.8452 71.2635 47.9308Z" fill="#361281"/>
<path d="M76.0612 51.1173C77.8313 50.3886 78.6718 48.3717 77.9386 46.6124C77.2055 44.8532 75.1762 44.0178 73.4062 44.7465C71.6361 45.4752 70.7956 47.4921 71.5288 49.2513C72.2619 51.0106 74.2912 51.846 76.0612 51.1173Z" fill="#361281" stroke="#D5FF2F" stroke-width="2" stroke-miterlimit="10"/>
<path d="M67.7979 63.4413C67.7979 62.7592 68.0015 62.0925 68.3828 61.5254C68.7641 60.9583 69.3061 60.5164 69.9402 60.2555C70.5742 59.9947 71.2719 59.9266 71.9449 60.0599C72.6179 60.1932 73.236 60.5219 73.7211 61.0044C74.2061 61.4869 74.5362 62.1016 74.6697 62.7706C74.8032 63.4397 74.734 64.133 74.4709 64.763C74.2079 65.3929 73.7627 65.9312 73.1918 66.3096C72.6209 66.6881 71.9499 66.8898 71.2636 66.8891C70.8082 66.8891 70.3573 66.7999 69.9366 66.6266C69.5159 66.4533 69.1337 66.1993 68.8118 65.8791C68.49 65.5588 68.2348 65.1787 68.0608 64.7604C67.8868 64.3422 67.7975 63.8939 67.7979 63.4413Z" fill="#361281"/>
<path d="M72.5912 66.6282C74.3613 65.8995 75.2018 63.8827 74.4687 62.1234C73.7355 60.3642 71.7062 59.5288 69.9362 60.2575C68.1661 60.9862 67.3256 63.0031 68.0587 64.7623C68.7919 66.5215 70.8212 67.357 72.5912 66.6282Z" fill="#361281" stroke="#D5FF2F" stroke-width="2" stroke-miterlimit="10"/>
<path d="M56.6998 73.4364C56.6998 72.7545 56.9032 72.0878 57.2844 71.5208C57.6656 70.9539 58.2074 70.5119 58.8413 70.251C59.4751 69.99 60.1727 69.9217 60.8456 70.0548C61.5185 70.1878 62.1366 70.5162 62.6217 70.9984C63.1069 71.4806 63.4373 72.0949 63.5712 72.7637C63.705 73.4325 63.6363 74.1258 63.3738 74.7558C63.1112 75.3858 62.6665 75.9243 62.0961 76.3031C61.5256 76.682 60.8549 76.8842 60.1688 76.8842C59.2488 76.8842 58.3664 76.521 57.7158 75.8744C57.0653 75.2278 56.6998 74.3508 56.6998 73.4364Z" fill="#361281"/>
<path d="M61.497 76.6214C63.267 75.8927 64.1076 73.8758 63.3744 72.1166C62.6412 70.3574 60.612 69.5219 58.8419 70.2506C57.0719 70.9793 56.2313 72.9962 56.9645 74.7555C57.6977 76.5147 59.727 77.3501 61.497 76.6214Z" fill="#361281" stroke="#D5FF2F" stroke-width="2" stroke-miterlimit="10"/>
<path d="M39.7086 73.4364C39.7086 72.7545 39.912 72.0878 40.2932 71.5208C40.6744 70.9539 41.2161 70.5119 41.85 70.251C42.4839 69.99 43.1814 69.9217 43.8543 70.0548C44.5273 70.1878 45.1454 70.5162 45.6305 70.9984C46.1157 71.4806 46.4461 72.0949 46.5799 72.7637C46.7138 73.4325 46.6451 74.1258 46.3825 74.7558C46.12 75.3858 45.6753 75.9243 45.1048 76.3031C44.5343 76.682 43.8637 76.8842 43.1776 76.8842C42.7219 76.8846 42.2706 76.7958 41.8495 76.6226C41.4285 76.4495 41.0458 76.1956 40.7236 75.8753C40.4014 75.5551 40.1459 75.1748 39.9717 74.7563C39.7975 74.3378 39.7081 73.8893 39.7086 73.4364Z" fill="#361281"/>
<path d="M44.5061 76.6222C46.2762 75.8934 47.1167 73.8766 46.3835 72.1173C45.6504 70.3581 43.6211 69.5227 41.8511 70.2514C40.081 70.9801 39.2405 72.9969 39.9736 74.7562C40.7068 76.5154 42.7361 77.3509 44.5061 76.6222Z" fill="#361281" stroke="#D5FF2F" stroke-width="2" stroke-miterlimit="10"/>
<path d="M28.2666 63.4413C28.2666 62.7592 28.4701 62.0925 28.8515 61.5254C29.2328 60.9583 29.7748 60.5164 30.4088 60.2555C31.0429 59.9947 31.7406 59.9266 32.4136 60.0599C33.0866 60.1932 33.7047 60.5219 34.1897 61.0044C34.6747 61.4869 35.0049 62.1016 35.1384 62.7706C35.2718 63.4397 35.2027 64.133 34.9396 64.763C34.6765 65.3929 34.2314 65.9312 33.6605 66.3096C33.0896 66.6881 32.4185 66.8898 31.7323 66.8891C31.2769 66.8891 30.826 66.7999 30.4053 66.6266C29.9846 66.4533 29.6024 66.1993 29.2805 65.8791C28.9586 65.5588 28.7034 65.1787 28.5294 64.7604C28.3555 64.3422 28.2662 63.8939 28.2666 63.4413Z" fill="#361281"/>
<path d="M33.0598 66.627C34.8298 65.8983 35.6704 63.8815 34.9372 62.1222C34.204 60.363 32.1748 59.5275 30.4047 60.2563C28.6347 60.985 27.7941 63.0018 28.5273 64.7611C29.2605 66.5203 31.2897 67.3557 33.0598 66.627Z" fill="#361281" stroke="#D5FF2F" stroke-width="2" stroke-miterlimit="10"/>
<path d="M24.7974 47.9308C24.7974 47.2487 25.0009 46.582 25.3823 46.0149C25.7636 45.4478 26.3055 45.0059 26.9396 44.745C27.5737 44.4842 28.2714 44.4161 28.9444 44.5494C29.6174 44.6827 30.2355 45.0114 30.7205 45.4939C31.2055 45.9764 31.5357 46.5911 31.6692 47.2601C31.8026 47.9292 31.7335 48.6225 31.4704 49.2525C31.2073 49.8824 30.7621 50.4207 30.1912 50.7991C29.6203 51.1776 28.9493 51.3793 28.2631 51.3786C27.8077 51.3786 27.3568 51.2894 26.9361 51.1161C26.5154 50.9428 26.1331 50.6888 25.8113 50.3686C25.4894 50.0484 25.2342 49.6682 25.0602 49.2499C24.8863 48.8317 24.797 48.3834 24.7974 47.9308Z" fill="#361281"/>
<path d="M29.5906 51.1187C31.3606 50.39 32.2012 48.3732 31.468 46.6139C30.7348 44.8547 28.7055 44.0192 26.9355 44.748C25.1655 45.4767 24.3249 47.4935 25.0581 49.2528C25.7913 51.012 27.8205 51.8474 29.5906 51.1187Z" fill="#361281" stroke="#D5FF2F" stroke-width="2" stroke-miterlimit="10"/>
</svg>
