<svg width="117" height="102" viewBox="0 0 117 102" fill="none" xmlns="http://www.w3.org/2000/svg">
<path d="M85.3004 4.4248H31.7034L4.89972 51.0003L31.7034 97.5758H85.3004L112.101 51.0003L85.3004 4.4248Z" fill="#361281" stroke="#D5FF2F" stroke-width="1.5" stroke-miterlimit="10"/>
<path d="M42.0486 28.5786L30.8534 48.0376" stroke="#D5FF2F" stroke-width="1.5" stroke-miterlimit="10"/>
<path d="M69.9752 25.4932H47.3527" stroke="#D5FF2F" stroke-width="1.5" stroke-miterlimit="10"/>
<path d="M30.8534 53.9617L43.8234 76.5063H73.1767L87.8533 50.9994L75.1086 28.8452" fill="#361281"/>
<path d="M30.8534 53.9617L43.8234 76.5063H73.1767L87.8533 50.9994L75.1086 28.8452" stroke="#D5FF2F" stroke-width="1.5" stroke-miterlimit="10"/>
<path d="M43.8234 25.6578L31.536 4.4248" stroke="#D5FF2F" stroke-width="1.5" stroke-miterlimit="10"/>
<path d="M85.464 4.4248L43.8233 25.6578" stroke="#D5FF2F" stroke-width="1.5" stroke-miterlimit="10"/>
<path d="M75.0538 22.4146L85.4639 4.4248" stroke="#D5FF2F" stroke-width="1.5" stroke-miterlimit="10"/>
<path d="M73.1769 25.6572L75.0541 22.4141" stroke="#D5FF2F" stroke-width="1.5" stroke-miterlimit="10"/>
<path d="M31.536 4.4248L73.518 25.6578" stroke="#D5FF2F" stroke-width="1.5" stroke-miterlimit="10"/>
<path d="M4.91309 50.9998L43.8232 25.6572" stroke="#D5FF2F" stroke-width="1.5" stroke-miterlimit="10"/>
<path d="M29.1466 51H4.91309" stroke="#D5FF2F" stroke-width="1.5" stroke-miterlimit="10"/>
<path d="M31.5361 4.4248L29.1469 51.0003" stroke="#D5FF2F" stroke-width="1.5" stroke-miterlimit="10"/>
<path d="M43.8232 76.3425L4.91309 51" stroke="#D5FF2F" stroke-width="1.5" stroke-miterlimit="10"/>
<path d="M31.536 97.5757L43.8234 76.3428" stroke="#D5FF2F" stroke-width="1.5" stroke-miterlimit="10"/>
<path d="M85.464 97.5757L43.8233 76.3428" stroke="#D5FF2F" stroke-width="1.5" stroke-miterlimit="10"/>
<path d="M73.1767 76.3428L31.536 97.5757" stroke="#D5FF2F" stroke-width="1.5" stroke-miterlimit="10"/>
<path d="M85.4643 97.5757L73.1769 76.3428" stroke="#D5FF2F" stroke-width="1.5" stroke-miterlimit="10"/>
<path d="M112.087 51L73.1769 76.3425" stroke="#D5FF2F" stroke-width="1.5" stroke-miterlimit="10"/>
<path d="M87.8534 51H112.087" stroke="#D5FF2F" stroke-width="1.5" stroke-miterlimit="10"/>
<path d="M76.3819 27.7432L112.087 51.0001" stroke="#D5FF2F" stroke-width="1.5" stroke-miterlimit="10"/>
<path d="M73.1769 25.6572L76.3818 27.7428" stroke="#D5FF2F" stroke-width="1.5" stroke-miterlimit="10"/>
<path d="M87.8534 51.0003L85.4642 4.4248" stroke="#D5FF2F" stroke-width="1.5" stroke-miterlimit="10"/>
<path d="M85.4642 97.5755L87.8534 51" stroke="#D5FF2F" stroke-width="1.5" stroke-miterlimit="10"/>
<path d="M29.1469 51L31.5361 97.5755" stroke="#D5FF2F" stroke-width="1.5" stroke-miterlimit="10"/>
<path d="M28.1227 4.42467C28.1227 3.74734 28.3229 3.08521 28.698 2.52203C29.073 1.95884 29.6061 1.51989 30.2297 1.26069C30.8534 1.00148 31.5397 0.933664 32.2018 1.06581C32.8639 1.19795 33.472 1.52412 33.9494 2.00306C34.4267 2.48201 34.7518 3.09223 34.8835 3.75655C35.0152 4.42087 34.9476 5.10946 34.6893 5.73523C34.4309 6.36101 33.9935 6.89587 33.4322 7.27218C32.8709 7.64849 32.211 7.84934 31.5359 7.84934C30.6307 7.84934 29.7625 7.48853 29.1224 6.84628C28.4823 6.20403 28.1227 5.33295 28.1227 4.42467Z" fill="#361281"/>
<path d="M31.5359 7.84934C33.421 7.84934 34.9491 6.31606 34.9491 4.42467C34.9491 2.53328 33.421 1 31.5359 1C29.6509 1 28.1227 2.53328 28.1227 4.42467C28.1227 6.31606 29.6509 7.84934 31.5359 7.84934Z" fill="#361281" stroke="#D5FF2F" stroke-width="1.5" stroke-miterlimit="10"/>
<path d="M40.4103 25.6576C40.4103 24.9802 40.6105 24.3181 40.9855 23.7549C41.3605 23.1918 41.8936 22.7528 42.5173 22.4936C43.141 22.2344 43.8272 22.1666 44.4893 22.2987C45.1514 22.4309 45.7596 22.757 46.2369 23.236C46.7143 23.7149 47.0393 24.3251 47.171 24.9895C47.3027 25.6538 47.2351 26.3424 46.9768 26.9681C46.7185 27.5939 46.281 28.1288 45.7197 28.5051C45.1584 28.8814 44.4985 29.0823 43.8234 29.0823C42.9182 29.0823 42.0501 28.7214 41.41 28.0792C40.7699 27.4369 40.4103 26.5659 40.4103 25.6576Z" fill="#361281"/>
<path d="M43.8234 29.0822C45.7085 29.0822 47.2366 27.549 47.2366 25.6576C47.2366 23.7662 45.7085 22.2329 43.8234 22.2329C41.9384 22.2329 40.4103 23.7662 40.4103 25.6576C40.4103 27.549 41.9384 29.0822 43.8234 29.0822Z" fill="#361281" stroke="#D5FF2F" stroke-width="1.5" stroke-miterlimit="10"/>
<path d="M70.1049 25.6576C70.1049 24.9802 70.305 24.3181 70.6801 23.7549C71.0551 23.1918 71.5882 22.7528 72.2119 22.4936C72.8355 22.2344 73.5218 22.1666 74.1839 22.2987C74.846 22.4309 75.4542 22.757 75.9315 23.236C76.4088 23.7149 76.7339 24.3251 76.8656 24.9895C76.9973 25.6538 76.9297 26.3424 76.6714 26.9681C76.4131 27.5939 75.9756 28.1288 75.4143 28.5051C74.853 28.8814 74.1931 29.0823 73.518 29.0823C72.6128 29.0823 71.7446 28.7214 71.1046 28.0792C70.4645 27.4369 70.1049 26.5659 70.1049 25.6576Z" fill="#361281"/>
<path d="M73.518 29.0822C75.4031 29.0822 76.9312 27.549 76.9312 25.6576C76.9312 23.7662 75.4031 22.2329 73.518 22.2329C71.633 22.2329 70.1049 23.7662 70.1049 25.6576C70.1049 27.549 71.633 29.0822 73.518 29.0822Z" fill="#361281" stroke="#D5FF2F" stroke-width="1.5" stroke-miterlimit="10"/>
<path d="M40.4103 76.3426C40.4103 75.6653 40.6105 75.0032 40.9855 74.44C41.3605 73.8768 41.8936 73.4379 42.5173 73.1787C43.141 72.9195 43.8272 72.8516 44.4893 72.9838C45.1514 73.1159 45.7596 73.4421 46.2369 73.921C46.7143 74.4 47.0393 75.0102 47.171 75.6745C47.3027 76.3388 47.2351 77.0274 46.9768 77.6532C46.7185 78.279 46.281 78.8138 45.7197 79.1901C45.1584 79.5665 44.4985 79.7673 43.8234 79.7673C42.9182 79.7673 42.0501 79.4065 41.41 78.7642C40.7699 78.122 40.4103 77.2509 40.4103 76.3426Z" fill="#361281"/>
<path d="M43.8234 79.7673C45.7085 79.7673 47.2366 78.234 47.2366 76.3426C47.2366 74.4512 45.7085 72.918 43.8234 72.918C41.9384 72.918 40.4103 74.4512 40.4103 76.3426C40.4103 78.234 41.9384 79.7673 43.8234 79.7673Z" fill="#361281" stroke="#D5FF2F" stroke-width="1.5" stroke-miterlimit="10"/>
<path d="M70.1049 76.3426C70.1049 75.6653 70.305 75.0032 70.6801 74.44C71.0551 73.8768 71.5882 73.4379 72.2119 73.1787C72.8355 72.9195 73.5218 72.8516 74.1839 72.9838C74.846 73.1159 75.4542 73.4421 75.9315 73.921C76.4088 74.4 76.7339 75.0102 76.8656 75.6745C76.9973 76.3388 76.9297 77.0274 76.6714 77.6532C76.4131 78.279 75.9756 78.8138 75.4143 79.1901C74.853 79.5665 74.1931 79.7673 73.518 79.7673C72.6128 79.7673 71.7446 79.4065 71.1046 78.7642C70.4645 78.122 70.1049 77.2509 70.1049 76.3426Z" fill="#361281"/>
<path d="M73.518 79.7673C75.4031 79.7673 76.9312 78.234 76.9312 76.3426C76.9312 74.4512 75.4031 72.918 73.518 72.918C71.633 72.918 70.1049 74.4512 70.1049 76.3426C70.1049 78.234 71.633 79.7673 73.518 79.7673Z" fill="#361281" stroke="#D5FF2F" stroke-width="1.5" stroke-miterlimit="10"/>
<path d="M81.7098 4.42467C81.7098 3.74734 81.91 3.08521 82.285 2.52203C82.66 1.95884 83.1931 1.51989 83.8168 1.26069C84.4405 1.00148 85.1267 0.933664 85.7888 1.06581C86.4509 1.19795 87.0591 1.52412 87.5364 2.00306C88.0138 2.48201 88.3388 3.09223 88.4705 3.75655C88.6022 4.42087 88.5346 5.10946 88.2763 5.73523C88.018 6.36101 87.5805 6.89587 87.0192 7.27218C86.4579 7.64849 85.798 7.84934 85.1229 7.84934C84.2177 7.84934 83.3496 7.48853 82.7095 6.84628C82.0694 6.20403 81.7098 5.33295 81.7098 4.42467Z" fill="#361281"/>
<path d="M85.1229 7.84934C87.008 7.84934 88.5361 6.31606 88.5361 4.42467C88.5361 2.53328 87.008 1 85.1229 1C83.2379 1 81.7098 2.53328 81.7098 4.42467C81.7098 6.31606 83.2379 7.84934 85.1229 7.84934Z" fill="#361281" stroke="#D5FF2F" stroke-width="1.5" stroke-miterlimit="10"/>
<path d="M28.1227 97.5751C28.1227 96.8977 28.3229 96.2356 28.698 95.6724C29.073 95.1092 29.6061 94.6703 30.2297 94.4111C30.8534 94.1519 31.5397 94.0841 32.2018 94.2162C32.8639 94.3483 33.472 94.6745 33.9494 95.1535C34.4267 95.6324 34.7518 96.2426 34.8835 96.9069C35.0152 97.5713 34.9476 98.2599 34.6893 98.8856C34.4309 99.5114 33.9935 100.046 33.4322 100.423C32.8709 100.799 32.211 101 31.5359 101C30.6307 101 29.7625 100.639 29.1224 99.9967C28.4823 99.3544 28.1227 98.4833 28.1227 97.5751Z" fill="#361281"/>
<path d="M31.5359 101C33.421 101 34.9491 99.4665 34.9491 97.5751C34.9491 95.6837 33.421 94.1504 31.5359 94.1504C29.6509 94.1504 28.1227 95.6837 28.1227 97.5751C28.1227 99.4665 29.6509 101 31.5359 101Z" fill="#361281" stroke="#D5FF2F" stroke-width="1.5" stroke-miterlimit="10"/>
<path d="M1.50012 51.0004C1.50012 50.323 1.7003 49.6609 2.07534 49.0977C2.45039 48.5345 2.98345 48.0956 3.60713 47.8364C4.2308 47.5772 4.91708 47.5093 5.57917 47.6415C6.24126 47.7736 6.84943 48.0998 7.32677 48.5787C7.80411 49.0577 8.12918 49.6679 8.26088 50.3322C8.39258 50.9966 8.32498 51.6851 8.06665 52.3109C7.80831 52.9367 7.37084 53.4716 6.80955 53.8479C6.24825 54.2242 5.58835 54.425 4.91329 54.425C4.00806 54.425 3.13991 54.0642 2.49981 53.422C1.85972 52.7797 1.50012 51.9086 1.50012 51.0004Z" fill="#361281"/>
<path d="M4.91329 54.425C6.79834 54.425 8.32646 52.8917 8.32646 51.0004C8.32646 49.109 6.79834 47.5757 4.91329 47.5757C3.02825 47.5757 1.50012 49.109 1.50012 51.0004C1.50012 52.8917 3.02825 54.425 4.91329 54.425Z" fill="#361281" stroke="#D5FF2F" stroke-width="1.5" stroke-miterlimit="10"/>
<path d="M25.7337 51.0004C25.7337 50.323 25.9339 49.6609 26.3089 49.0977C26.684 48.5345 27.217 48.0956 27.8407 47.8364C28.4644 47.5772 29.1507 47.5093 29.8127 47.6415C30.4748 47.7736 31.083 48.0998 31.5603 48.5787C32.0377 49.0577 32.3628 49.6679 32.4945 50.3322C32.6262 50.9966 32.5586 51.6851 32.3002 52.3109C32.0419 52.9367 31.6044 53.4716 31.0431 53.8479C30.4818 54.2242 29.8219 54.425 29.1469 54.425C28.2416 54.425 27.3735 54.0642 26.7334 53.422C26.0933 52.7797 25.7337 51.9086 25.7337 51.0004Z" fill="#361281"/>
<path d="M29.1469 54.425C31.0319 54.425 32.56 52.8917 32.56 51.0004C32.56 49.109 31.0319 47.5757 29.1469 47.5757C27.2618 47.5757 25.7337 49.109 25.7337 51.0004C25.7337 52.8917 27.2618 54.425 29.1469 54.425Z" fill="#361281" stroke="#D5FF2F" stroke-width="1.5" stroke-miterlimit="10"/>
<path d="M81.7098 97.5751C81.7098 96.8977 81.91 96.2356 82.285 95.6724C82.66 95.1092 83.1931 94.6703 83.8168 94.4111C84.4405 94.1519 85.1267 94.0841 85.7888 94.2162C86.4509 94.3483 87.0591 94.6745 87.5364 95.1535C88.0138 95.6324 88.3388 96.2426 88.4705 96.9069C88.6022 97.5713 88.5346 98.2599 88.2763 98.8856C88.018 99.5114 87.5805 100.046 87.0192 100.423C86.4579 100.799 85.798 101 85.1229 101C84.2177 101 83.3496 100.639 82.7095 99.9967C82.0694 99.3544 81.7098 98.4833 81.7098 97.5751Z" fill="#361281"/>
<path d="M85.1229 101C87.008 101 88.5361 99.4665 88.5361 97.5751C88.5361 95.6837 87.008 94.1504 85.1229 94.1504C83.2379 94.1504 81.7098 95.6837 81.7098 97.5751C81.7098 99.4665 83.2379 101 85.1229 101Z" fill="#361281" stroke="#D5FF2F" stroke-width="1.5" stroke-miterlimit="10"/>
<path d="M108.674 51.0004C108.674 50.323 108.874 49.6609 109.249 49.0977C109.624 48.5345 110.157 48.0956 110.781 47.8364C111.404 47.5772 112.091 47.5093 112.753 47.6415C113.415 47.7736 114.023 48.0998 114.5 48.5787C114.978 49.0577 115.303 49.6679 115.435 50.3322C115.566 50.9966 115.499 51.6851 115.24 52.3109C114.982 52.9367 114.544 53.4716 113.983 53.8479C113.422 54.2242 112.762 54.425 112.087 54.425C111.182 54.425 110.314 54.0642 109.673 53.422C109.033 52.7797 108.674 51.9086 108.674 51.0004Z" fill="#361281"/>
<path d="M112.087 54.425C113.972 54.425 115.5 52.8917 115.5 51.0004C115.5 49.109 113.972 47.5757 112.087 47.5757C110.202 47.5757 108.674 49.109 108.674 51.0004C108.674 52.8917 110.202 54.425 112.087 54.425Z" fill="#361281" stroke="#D5FF2F" stroke-width="1.5" stroke-miterlimit="10"/>
<path d="M84.4402 51.0004C84.4402 50.323 84.6404 49.6609 85.0155 49.0977C85.3905 48.5345 85.9236 48.0956 86.5473 47.8364C87.1709 47.5772 87.8572 47.5093 88.5193 47.6415C89.1814 47.7736 89.7896 48.0998 90.2669 48.5787C90.7442 49.0577 91.0693 49.6679 91.201 50.3322C91.3327 50.9966 91.2651 51.6851 91.0068 52.3109C90.7484 52.9367 90.311 53.4716 89.7497 53.8479C89.1884 54.2242 88.5285 54.425 87.8534 54.425C86.9482 54.425 86.08 54.0642 85.4399 53.422C84.7998 52.7797 84.4402 51.9086 84.4402 51.0004Z" fill="#361281"/>
<path d="M87.8534 54.425C89.7385 54.425 91.2666 52.8917 91.2666 51.0004C91.2666 49.109 89.7385 47.5757 87.8534 47.5757C85.9684 47.5757 84.4402 49.109 84.4402 51.0004C84.4402 52.8917 85.9684 54.425 87.8534 54.425Z" fill="#361281" stroke="#D5FF2F" stroke-width="1.5" stroke-miterlimit="10"/>
</svg>
