<svg width="280" height="52" viewBox="0 0 280 52" fill="none" xmlns="http://www.w3.org/2000/svg">
<line opacity="0.3" x1="233.081" y1="13.8936" x2="233.081" y2="37.6803" stroke="white" stroke-width="2" stroke-linecap="round"/>
<path d="M156.694 38.0658H162.706V15.3882H156.694V38.0658ZM156.694 11.8518H162.706V6.45865H156.694V11.8518Z" fill="white"/>
<path d="M166.581 45.4925H172.593V35.502H172.681C173.962 37.4471 176.041 38.7291 179.223 38.7291C185.058 38.7291 189.037 34.0875 189.037 26.7493C189.037 19.6763 185.191 14.7695 179.179 14.7695C176.085 14.7695 173.962 16.2283 172.504 18.2175H172.371V15.3883H166.581V45.4925ZM177.941 33.7338C174.361 33.7338 172.46 31.0373 172.46 26.9261C172.46 22.8591 173.962 19.6322 177.721 19.6322C181.434 19.6322 182.936 22.6381 182.936 26.9261C182.936 31.214 180.992 33.7338 177.941 33.7338Z" fill="white"/>
<path d="M201.029 38.7291C206.688 38.7291 210.578 35.9883 210.578 31.435C210.578 26.1304 206.379 25.0695 202.577 24.2738C199.349 23.6107 196.344 23.4338 196.344 21.4888C196.344 19.8532 197.891 18.9691 200.234 18.9691C202.798 18.9691 204.346 19.8532 204.61 22.2845H210.047C209.606 17.7313 206.29 14.7695 200.323 14.7695C195.15 14.7695 191.083 17.1124 191.083 22.0193C191.083 26.9703 195.062 28.0754 199.129 28.8712C202.223 29.4901 205.096 29.7111 205.096 31.8772C205.096 33.4686 203.594 34.4854 200.942 34.4854C198.244 34.4854 196.388 33.3359 195.991 30.7278H190.421C190.774 35.5462 194.443 38.7291 201.029 38.7291Z" fill="white"/>
<path d="M233.403 38.0659V15.3883H227.391V28.4733C227.391 31.4792 225.667 33.6011 222.839 33.6011C220.274 33.6011 219.081 32.1423 219.081 29.49V15.3883H213.113V30.5067C213.113 35.4577 215.942 38.6848 220.982 38.6848C224.165 38.6848 225.933 37.4913 227.48 35.4136H227.613V38.0659H233.403Z" fill="white"/>
<path d="M237.292 38.066H243.304V24.8927C243.304 21.8866 244.94 19.9416 247.372 19.9416C249.582 19.9416 250.863 21.2677 250.863 23.8317V38.066H256.876V24.8927C256.876 21.8866 258.423 19.9416 260.942 19.9416C263.153 19.9416 264.435 21.2677 264.435 23.8317V38.066H270.447V22.8149C270.447 17.8639 267.75 14.7695 262.976 14.7695C260.103 14.7695 257.715 16.2724 256.168 18.748H256.08C254.975 16.3609 252.676 14.7695 249.802 14.7695C246.664 14.7695 244.454 16.3609 243.216 18.4385H243.084V15.3883H237.292V38.066Z" fill="white"/>
<path d="M0 38.0658H6.01199V6.45865H0V38.0658Z" fill="white"/>
<path d="M20.7122 38.7291C27.7409 38.7291 32.5593 33.5128 32.5593 26.7493C32.5593 19.9857 27.7409 14.7695 20.7122 14.7695C13.6834 14.7695 8.86498 19.9857 8.86498 26.7493C8.86498 33.5128 13.6834 38.7291 20.7122 38.7291ZM20.7122 34.1317C16.9989 34.1317 14.9654 31.1698 14.9654 26.7493C14.9654 22.3287 16.9989 19.3227 20.7122 19.3227C24.3813 19.3227 26.4589 22.3287 26.4589 26.7493C26.4589 31.1698 24.3813 34.1317 20.7122 34.1317Z" fill="white"/>
<path d="M45.3445 45.802C48.7042 45.802 51.6218 45.0063 53.5225 43.238C55.2024 41.6908 56.2192 39.5247 56.2192 36.342V15.3883H50.4283V17.7755H50.3398C48.9694 15.8747 46.8917 14.7695 44.0625 14.7695C38.3158 14.7695 34.2489 19.1016 34.2489 25.8651C34.2489 32.717 39.1999 36.6955 44.2394 36.6955C47.1127 36.6955 48.8368 35.5462 50.1629 34.0432H50.2956V36.5188C50.2956 39.6132 48.6599 41.2488 45.2561 41.2488C42.4711 41.2488 41.1891 40.1436 40.7029 38.7291H34.7351C35.354 43.1497 39.1557 45.802 45.3445 45.802ZM45.2561 31.8772C42.1617 31.8772 40.1283 29.6226 40.1283 25.7768C40.1283 21.975 42.1617 19.588 45.2119 19.588C48.8368 19.588 50.605 22.4172 50.605 25.7326C50.605 29.0922 49.0578 31.8772 45.2561 31.8772Z" fill="white"/>
<path d="M70.8323 38.7291C77.8609 38.7291 82.6794 33.5128 82.6794 26.7493C82.6794 19.9857 77.8609 14.7695 70.8323 14.7695C63.8036 14.7695 58.985 19.9857 58.985 26.7493C58.985 33.5128 63.8036 38.7291 70.8323 38.7291ZM70.8323 34.1317C67.119 34.1317 65.0855 31.1698 65.0855 26.7493C65.0855 22.3287 67.119 19.3227 70.8323 19.3227C74.5013 19.3227 76.5791 22.3287 76.5791 26.7493C76.5791 31.1698 74.5013 34.1317 70.8323 34.1317Z" fill="white"/>
<path d="M272.631 11.6655C272.631 10.6483 273.457 9.82364 274.474 9.82364H278.158C279.175 9.82364 280 10.6483 280 11.6655C280 12.6828 279.175 13.5075 278.158 13.5075H274.474C273.457 13.5075 272.631 12.6828 272.631 11.6655Z" fill="white"/>
<path fill-rule="evenodd" clip-rule="evenodd" d="M119.139 0C133.38 0 144.926 11.5451 144.926 25.7867C144.926 40.0284 133.38 51.5735 119.139 51.5735C104.898 51.5735 93.3526 40.0284 93.3526 25.7867C93.3526 11.5451 104.898 0 119.139 0ZM118.207 1.92961C115.265 2.34361 112.464 4.70747 110.29 8.66099C109.659 9.80777 109.09 11.0747 108.594 12.4427C111.551 11.6997 114.799 11.2616 118.207 11.1939V1.92961ZM106.414 13.062C107.031 11.1264 107.786 9.34563 108.656 7.76265C109.734 5.80278 111.014 4.11034 112.455 2.81046C104.617 5.08673 98.4393 11.2647 96.163 19.1024C97.4629 17.6611 99.1553 16.3818 101.115 15.3039C102.698 14.4332 104.479 13.6787 106.414 13.062ZM105.795 15.2414C105.052 18.1981 104.614 21.4461 104.546 24.8547H95.2821C95.6961 21.9128 98.06 19.1116 102.014 16.9372C103.16 16.3065 104.427 15.7374 105.795 15.2414ZM106.411 24.8547C106.488 21.1348 107.023 17.6425 107.909 14.5569C110.995 13.6708 114.487 13.1352 118.207 13.0583V17.0847C116.82 20.6374 113.989 23.4675 110.436 24.8547H106.411ZM104.546 26.7188H95.2821C95.6961 29.6607 98.06 32.4618 102.014 34.6362C103.16 35.267 104.427 35.8361 105.795 36.3321C105.052 33.3754 104.614 30.1274 104.546 26.7188ZM107.909 37.0166C107.023 33.931 106.488 30.4387 106.411 26.7188H110.436C113.989 28.106 116.82 30.9361 118.207 34.4887V38.5152C114.487 38.4382 110.995 37.9026 107.909 37.0166ZM106.414 38.5115C104.479 37.8948 102.698 37.1403 101.115 36.2696C99.1553 35.1917 97.4629 33.9124 96.163 32.471C98.4393 40.3088 104.617 46.4868 112.455 48.763C111.014 47.4631 109.734 45.7707 108.656 43.8108C107.786 42.2278 107.031 40.447 106.414 38.5115ZM118.207 49.6439C115.265 49.2298 112.464 46.866 110.29 42.9125C109.659 41.7658 109.09 40.4987 108.594 39.1309C111.551 39.8738 114.799 40.3119 118.207 40.3796V49.6439ZM125.824 48.763C127.265 47.4631 128.544 45.7707 129.622 43.8108C130.492 42.2278 131.248 40.447 131.864 38.5115C133.799 37.8948 135.58 37.1403 137.163 36.2696C139.123 35.1917 140.816 33.9124 142.116 32.471C139.839 40.3088 133.662 46.4868 125.824 48.763ZM129.685 39.1309C129.189 40.4987 128.619 41.7658 127.988 42.9125C125.814 46.866 123.013 49.2298 120.071 49.6439V40.3796C123.48 40.3119 126.728 39.8738 129.685 39.1309ZM132.483 36.3321C133.851 35.8361 135.118 35.267 136.265 34.6362C140.219 32.4619 142.582 29.6607 142.996 26.7188H133.732C133.664 30.1274 133.226 33.3754 132.483 36.3321ZM131.868 26.7188C131.791 30.4387 131.256 33.931 130.369 37.0166C127.283 37.9026 123.791 38.4382 120.071 38.5152V34.4917C121.459 30.9378 124.29 28.1064 127.843 26.7188H131.868ZM133.732 24.8547H142.996C142.582 21.9128 140.219 19.1116 136.265 16.9372C135.118 16.3065 133.851 15.7374 132.483 15.2414C133.226 18.1981 133.664 21.4461 133.732 24.8547ZM130.369 14.5569C131.256 17.6425 131.791 21.1348 131.868 24.8547H127.843C124.29 23.4671 121.459 20.6357 120.071 17.0818V13.0583C123.791 13.1352 127.283 13.6708 130.369 14.5569ZM131.864 13.062C133.799 13.6787 135.58 14.4332 137.163 15.3039C139.123 16.3818 140.816 17.6611 142.116 19.1024C139.839 11.2647 133.662 5.08673 125.824 2.81046C127.265 4.11034 128.544 5.80278 129.622 7.76265C130.492 9.34563 131.248 11.1264 131.864 13.062ZM120.071 1.92961C123.013 2.34361 125.814 4.70747 127.988 8.66099C128.619 9.80778 129.189 11.0747 129.685 12.4427C126.728 11.6997 123.48 11.2616 120.071 11.1939V1.92961Z" fill="white"/>
</svg>
